<svg width="16" height="16" viewBox="0 0 16 16" fill="none" xmlns="http://www.w3.org/2000/svg">
    <circle cx="8" cy="8" r="8" fill="#F0F0F0"/>
    <path d="M7.65217 8.5H16C16 7.77783 15.9037 7.07829 15.7244 6.41289H7.65217V8.5Z" fill="#D80027"/>
    <path d="M7.65217 4.32609H14.8258C14.3361 3.52696 13.7099 2.82061 12.9798 2.23911H7.65217V4.32609Z" fill="#D80027"/>
    <path d="M8 16.3257C9.88279 16.3257 11.6133 15.675 12.9799 14.5866H3.02014C4.3867 15.675 6.11721 16.3257 8 16.3257Z" fill="#D80027"/>
    <path d="M1.17417 12.4999H14.8258C15.2189 11.8584 15.5239 11.1571 15.7244 10.4129H0.275566C0.476101 11.1571 0.78101 11.8584 1.17417 12.4999Z" fill="#D80027"/>
    <path d="M3.70575 1.57531H4.43478L3.75666 2.06797L4.01569 2.86512L3.33759 2.37247L2.6595 2.86512L2.88325 2.17647C2.28619 2.67381 1.76287 3.2565 1.33162 3.90575H1.56522L1.13356 4.21934C1.06631 4.33153 1.00181 4.4455 0.94 4.56116L1.14612 5.19556L0.761563 4.91616C0.665972 5.11869 0.578527 5.32578 0.49994 5.53719L0.727032 6.23624H1.56522L0.887094 6.72889L1.14612 7.52604L0.468032 7.03339L0.0618364 7.32861C0.0211908 7.65541 0 7.98826 0 8.32596H8C8 3.90771 8 3.38683 8 0.326086C6.41962 0.326086 4.94642 0.784527 3.70575 1.57531ZM4.01569 7.52604L3.33759 7.03339L2.6595 7.52604L2.91853 6.72889L2.24041 6.23624H3.07859L3.33759 5.43908L3.59659 6.23624H4.43478L3.75666 6.72889L4.01569 7.52604ZM3.75666 4.39864L4.01569 5.19578L3.33759 4.70312L2.6595 5.19578L2.91853 4.39864L2.24041 3.90598H3.07859L3.33759 3.10883L3.59659 3.90598H4.43478L3.75666 4.39864ZM6.88527 7.52604L6.20717 7.03339L5.52906 7.52604L5.78809 6.72889L5.10997 6.23624H5.94816L6.20717 5.43908L6.4662 6.23624H7.30435L6.62624 6.72889L6.88527 7.52604ZM6.62624 4.39864L6.88527 5.19578L6.20717 4.70312L5.52906 5.19578L5.78809 4.39864L5.10997 3.90598H5.94816L6.20717 3.10883L6.4662 3.90598H7.30435L6.62624 4.39864ZM6.62624 2.0682L6.88527 2.86535L6.20717 2.3727L5.52906 2.86535L5.78809 2.0682L5.10997 1.57554H5.94816L6.20717 0.778394L6.4662 1.57554H7.30435L6.62624 2.0682Z" fill="#0052B4"/>
</svg>
